<?xml version="1.0" encoding="utf-8"?>
<svg version="1.1" xmlns="http://www.w3.org/2000/svg" xmlns:xlink="http://www.w3.org/1999/xlink" x="0px" y="0px"
	 viewBox="0 0 256 256" style="enable-background:new 0 0 256 256;" xml:space="preserve">
<style type="text/css">
	.st0{fill:#F49800;}
	.st1{fill:#FFFFFF;}
	.st2{fill:#BF4C40;}
	.st3{fill:#5BBC40;}
	.st4{fill:#E29038;}
	.st5{opacity:0.4;fill:#FFFFFF;}
</style>
<rect class="st0" width="256" height="256"/>
<g>
	<path class="st1" d="M219.7,59.5H36.3c-3.4,0-6.1,2.7-6.1,6.1v132.3c0,3.4,2.7,6.1,6.1,6.1h183.3c3.4,0,6.1-2.7,6.1-6.1V65.6
		C225.7,62.2,223,59.5,219.7,59.5z M213.5,191.8H42.4V91.9h171.1V191.8z M213.6,83H90.1V68.7h123.5V83z"/>
	<circle class="st2" cx="47.7" cy="75.3" r="5.3"/>
	<circle class="st3" cx="79.5" cy="75.4" r="5.3"/>
	<circle class="st4" cx="63.6" cy="75.3" r="5.3"/>
	<g>
		<path class="st1" d="M132.8,133.9c-2.1-1.2-4.6-1.5-7-0.8c-2.3,0.6-4.3,2.2-5.4,4.4c-2.4,4.4-0.8,10,3.6,12.4
			c4.4,2.4,10,0.8,12.4-3.6C138.8,141.9,137.2,136.4,132.8,133.9z"/>
		<path class="st1" d="M128,106.3c-23,0-43.6,14.1-52.1,35.5c11.3,28.7,43.8,42.9,72.5,31.6c14.4-5.7,25.9-17.1,31.6-31.6
			C171.6,120.4,151,106.3,128,106.3z M153.5,149.8l-5.1,9.1c-0.3,0.6-1,0.8-1.5,0.5l-6.5-2.5c-1.3,1.1-2.8,1.9-4.4,2.6l-0.9,6.9
			c0,0.6-0.6,1.1-1.2,1.1l-10.4,0.2c-0.8,0-1.3-0.3-1.4-1l-1.1-6.9c-0.8-0.3-1.6-0.7-2.3-1.1c-0.7-0.4-1.4-0.8-2.1-1.3l-6.4,2.9
			c-0.6,0.3-1.1,0-1.6-0.6l-5.3-8.9c-0.3-0.5-0.2-1.3,0.3-1.6l5.4-4.5c-0.2-1.7-0.2-3.4,0-5.1l-5.5-4.2c-0.5-0.4-0.7-1.1-0.3-1.6
			l5.1-9.1c0.3-0.6,1-0.8,1.5-0.5l6.4,2.5c1.3-1,2.8-1.9,4.4-2.6l0.9-6.9c0-0.6,0.6-1.1,1.2-1.1l10.4-0.2c0.9,0,1.3,0.3,1.4,1l1,6.9
			c0.8,0.3,1.5,0.7,2.3,1.1c0.7,0.4,1.5,0.9,2.2,1.3l6.4-2.9c0.6-0.3,1.2,0,1.6,0.6l5.4,8.9c0.3,0.6,0.2,1.3-0.3,1.6l-5.4,4.4
			c0.2,1.7,0.2,3.4,0,5.1l5.5,4.2C153.7,148.6,153.8,149.3,153.5,149.8z"/>
	</g>
	<rect x="90.1" y="68.7" class="st5" width="123.5" height="14.4"/>
</g>
</svg>
